<svg width="144" height="80" viewBox="0 0 144 80" fill="none" xmlns="http://www.w3.org/2000/svg">
<g clip-path="url(#clip0_176_2)">
<path d="M123.05 16.1092V17.7819L122.54 17.2364C122.54 17.2364 122.248 17.2364 121.713 17.2486C115.127 17.3334 71.1372 17.891 67.6496 17.9152C63.8825 17.9273 61.7073 18.8243 58.6208 20.6667C58.56 20.7031 58.5114 20.7273 58.4506 20.7637C57.3934 19.1273 56.0932 17.988 54.9266 18.194C53.6263 18.4122 52.7149 19.4667 52.4962 21.091C50.2238 21.2849 45.0957 21.697 41.523 21.794C36.8081 21.9395 36.9539 21.0304 35.2648 20.3395C33.6729 19.7092 27.6942 20.7395 24.3038 21.6122C24.2066 21.6364 24.0972 21.6607 24 21.6849C24.1094 20.691 24.4375 18.2667 24.96 17.2486C25.6162 15.9395 31.2182 13.0789 31.2182 13.0789L33.9038 11.6486C33.9038 11.6486 42.3129 3.17583 45.8977 2.25462C49.4825 1.34553 61.8289 0.872803 61.8289 0.872803C61.8289 0.872803 75.123 1.17583 78.4284 1.53947C81.7458 1.89098 82.3291 2.2425 83.2162 3.05462C84.1154 3.86674 92.0749 8.90917 92.0749 8.90917L116.962 11.2607L120.389 12.0607L122.151 13.9395L123.05 16.1092Z" fill="#FE2818"/>
<path d="M51.84 30.3153L49.3003 30.3031L47.8785 32.7153L37.5494 32.4244L34.3291 30.8728L32.9317 26.6304L32.1539 24.7395L31.3033 23.6728L29.8329 24.8365L29.2982 29.1759L28.8365 29.5274L28.5327 29.7819L26.8436 27.5395C26.8436 27.5395 23.4775 23.0425 23.4775 22.9092C23.5139 22.8486 23.5747 21.794 23.5747 21.794C23.7084 21.7577 23.842 21.7213 23.9879 21.685C24.0851 21.6607 24.1823 21.6365 24.2917 21.6122C27.682 20.7516 33.6608 19.7092 35.2527 20.3395C36.9418 21.0304 36.8081 21.9395 41.523 21.794C45.0957 21.6971 50.2238 21.285 52.4962 21.091C52.4841 21.1637 52.4841 21.2244 52.4719 21.3213C52.399 22.0365 52.4476 22.8728 52.6663 23.794C52.6663 23.7819 51.2689 26.1577 51.84 30.3153Z" fill="#A51309"/>
<path d="M123.901 18.6666L123.05 20.8727L119.903 23.4788L117.849 25.5636C117.849 25.5636 115.881 27.5151 114.143 28.2787C112.417 29.0424 99.7914 29.7939 89.4745 29.5515C79.1454 29.3212 73.8957 28.303 70.0193 28.7272C66.9206 29.0666 65.4623 29.8666 64.6117 29.8303C64.393 29.8181 64.2107 29.7454 64.0527 29.6121C64.0527 29.6121 63.7003 29.3454 63.1899 28.8727C62.2421 27.9757 60.7352 26.3272 60.0912 24.2666C60.0547 24.1333 60.0061 24 59.9454 23.8666C59.7023 23.1151 59.3742 22.3878 58.9975 21.6969C58.8395 21.3939 58.6573 21.0909 58.475 20.8C58.475 20.7878 58.4628 20.7757 58.4507 20.7636C58.5114 20.7394 58.5601 20.703 58.6208 20.6666C61.7195 18.8242 63.8826 17.9272 67.6497 17.9151C71.1373 17.8909 115.115 17.3333 121.713 17.2484C122.248 17.2363 122.54 17.2363 122.54 17.2363L123.05 17.7818L123.901 18.6666Z" fill="#A51309"/>
<path d="M37.5373 32.4244L47.8664 32.7153L47.4897 33.3456L47.4411 33.3092H47.2952L39.6031 33.2122H39.1656L39.117 33.6486C39.1049 33.8183 39.0805 33.9759 39.0562 34.1456C38.959 34.9092 38.7768 35.685 38.5216 36.4244C38.2178 37.3213 37.8046 38.1819 37.1727 38.8001C37.039 38.9698 36.8446 39.0789 36.6866 39.2244C36.4922 39.3092 36.3342 39.4304 36.1033 39.491C35.6659 39.6607 35.2284 39.7456 34.7666 39.8062C33.8674 39.9032 32.9195 39.7819 32.0446 39.4789C31.8502 39.4062 31.5828 39.3092 31.4613 39.2244C31.3033 39.1153 31.1332 38.9698 30.9874 38.8122C30.6836 38.485 30.4041 38.1213 30.1854 37.7092C29.7236 36.8971 29.4319 35.988 29.2254 35.0547C28.9945 34.1335 28.9216 33.1638 28.8365 32.2062L28.8122 30.7395C28.8122 30.4607 28.8243 30.1941 28.8122 29.9274C28.8122 29.7941 28.8122 29.6607 28.8122 29.5274L29.274 29.1759L29.8086 24.8365L31.279 23.6729L32.1297 24.7395L32.9074 26.6304L34.3049 30.8729L37.5373 32.4244Z" fill="black"/>
<path d="M90.5328 34.4854L90.5074 34.4727C90.5074 34.4727 90.5201 34.4727 90.5328 34.4854Z" fill="black"/>
<path d="M114.155 28.291L114.131 28.5334C114.118 28.6788 114.106 28.8243 114.094 28.9697C114.046 29.4061 113.985 29.8546 113.912 30.291C113.584 32.0485 112.976 33.7819 112.004 35.2485C110.728 37.2243 108.614 38.5334 106.232 38.7031C104.045 38.9455 101.784 38.9576 99.755 38.2788L95.2223 30.5819L51.84 30.3152C51.2689 26.1576 52.6664 23.7819 52.6664 23.7819C52.4476 22.8728 52.399 22.0243 52.4719 21.3091C52.4841 21.2243 52.4841 21.1516 52.4962 21.0788C52.7271 19.4546 53.6264 18.4122 54.9266 18.194C56.0932 17.9879 57.3934 19.1273 58.4507 20.7516C58.4628 20.7637 58.4628 20.7879 58.4628 20.7879C59.1312 21.8304 59.7145 23.0425 60.079 24.2667C61.0755 27.4182 64.0284 29.6122 64.0284 29.6122C64.8061 30.3031 66.1185 29.1516 70.0071 28.7394C73.8836 28.3152 79.1332 29.3334 89.4623 29.5637C99.7914 29.8061 112.417 29.0546 114.155 28.291Z" fill="black"/>
<path d="M35.8846 11.8547C35.8846 11.8547 42.1307 5.92742 43.6253 5.06681C45.0593 4.24257 48.7778 3.05469 48.7778 3.05469L48.5104 11.0911C48.5104 11.0911 41.3043 13.2365 39.4208 13.0547C37.5372 12.8729 35.8846 11.8547 35.8846 11.8547Z" fill="black"/>
<path d="M50.4426 10.4607C50.4426 10.4607 60.7352 8.67888 90.2157 9.56373L81.7702 3.05464C81.7702 3.05464 77.8572 2.25464 64.3929 2.25464C50.9286 2.25464 50.4426 3.05464 50.4426 3.05464C50.4426 3.05464 50.1995 9.47888 50.4426 10.4607Z" fill="black"/>
<path d="M38.2056 10.2546C38.2056 10.2546 43.2851 5.67276 43.917 5.43034C44.5489 5.18791 47.9879 3.8667 47.9879 3.8667L47.7692 6.36367C47.7692 6.36367 42.9084 7.97579 38.2056 10.2546Z" fill="white"/>
<path d="M51.0988 3.41834V6.20622C51.0988 6.20622 65.0005 3.18804 75.4512 3.05471C75.4512 3.06683 63.275 2.25471 51.0988 3.41834Z" fill="white"/>
<path d="M39.3965 34.1577H39.0684C38.9712 34.9213 38.7889 35.6971 38.5458 36.4365C38.242 37.3335 37.8167 38.1941 37.197 38.8122C37.0633 38.9819 36.8689 39.091 36.7109 39.2244C36.5165 39.3092 36.3585 39.4304 36.1276 39.491C35.6901 39.6607 35.2527 39.7456 34.7909 39.8062C33.8795 39.9032 32.9317 39.7819 32.0689 39.4789C31.8744 39.4062 31.6071 39.3092 31.4856 39.2244C31.3276 39.1153 31.1575 38.9698 31.0117 38.8122C30.7079 38.485 30.4284 38.1213 30.2096 37.7092C29.7479 36.8971 29.4562 35.988 29.2496 35.0547C29.0188 34.1213 28.9458 33.1638 28.8608 32.2062L28.8365 30.7395C28.8365 30.4607 28.8486 30.1941 28.8365 29.9274C28.7636 29.9032 28.6906 29.8668 28.6177 29.8425L28.8365 29.0789C28.8365 29.0789 29.5291 28.8486 28.8365 25.8304C28.156 22.8122 29.6993 21.1638 31.0846 22.7274C32.4699 24.291 33.8795 28.7516 36.0304 30.9456C38.1813 33.1274 38.3879 33.2244 39.1656 33.2244C39.4208 33.2122 39.4572 33.6122 39.3965 34.1577Z" fill="black"/>
<path d="M31.5706 35.0424C32.2887 35.0424 32.8709 32.6926 32.8709 29.7939C32.8709 26.8952 32.2887 24.5454 31.5706 24.5454C30.8525 24.5454 30.2704 26.8952 30.2704 29.7939C30.2704 32.6926 30.8525 35.0424 31.5706 35.0424Z" fill="white"/>
<path d="M64.0405 29.6122C64.0405 29.6122 63.6881 29.3455 63.1778 28.8728C63.1413 29.2728 63.0805 29.6607 62.9833 30.0243C62.7767 30.8001 62.4243 31.4667 61.9747 31.9516H63.834C64.1621 31.3698 64.4051 30.7152 64.5631 30.0243C64.5874 29.9637 64.5995 29.891 64.6117 29.8304C64.3808 29.8304 64.1985 29.7455 64.0405 29.6122ZM54.2218 28.2304C54.2218 28.8485 54.2947 29.4546 54.4162 30.0243C54.5742 30.7152 54.8172 31.3819 55.1453 31.9516H58.2927C57.8431 31.4546 57.4907 30.7879 57.2841 30.0243C57.1383 29.5031 57.0653 28.9455 57.0653 28.3516C57.0653 25.9637 58.3413 24.0122 59.9453 23.8667C59.7023 23.1273 59.3742 22.3879 58.9853 21.697C56.3241 22.0122 54.2218 24.8001 54.2218 28.2304Z" fill="white"/>
<path d="M68.1358 18.3153H66.8841C66.0943 18.3153 65.4502 18.9577 65.4502 19.7456V21.7093C65.4502 22.4971 66.0943 23.1396 66.8841 23.1396H90.9327L91.9778 21.9759H102.538L102.72 22.8971H119.842C120.207 22.8971 120.559 22.7638 120.826 22.5093L123.561 19.9517L123.767 17.5153L122.187 16.885L121.179 17.6244L119.453 19.6486L115.467 19.8062L102.915 19.8668L73.0937 19.7214L70.2988 19.6971L68.1358 18.3153Z" fill="white"/>
<path d="M91.1393 23.6H66.8841C65.839 23.6 64.9884 22.7516 64.9884 21.7091V19.7455C64.9884 18.7031 65.839 17.8546 66.8841 17.8546H68.2694L70.4082 19.2243L73.0694 19.2485L102.89 19.394L115.443 19.3334L119.198 19.1879L120.863 17.2485L122.09 16.3516L124.229 17.2L123.974 20.1697L121.118 22.8485C120.766 23.1758 120.304 23.3576 119.818 23.3576H102.319L102.137 22.4364H92.1722L91.1393 23.6ZM66.8841 18.7879C66.3494 18.7879 65.9241 19.2243 65.9241 19.7455V21.7091C65.9241 22.2425 66.3616 22.6667 66.8841 22.6667H90.7261L91.7712 21.5031H102.927L103.109 22.4243H119.842C120.085 22.4243 120.328 22.3273 120.498 22.1576L123.099 19.7213L123.269 17.8061L122.248 17.4061L121.483 17.9637L119.66 20.097L115.48 20.2546L102.914 20.3152L70.153 20.1334L68.0021 18.7879H66.8841Z" fill="black"/>
<path d="M47.4532 33.3091H47.3074L39.4329 32.9697L39.1777 33.2122L39.1291 33.6485C39.117 33.8182 39.0927 33.9758 39.0684 34.1455H40.0041L46.9671 34.2304L47.4896 33.3334L47.4532 33.3091ZM90.5074 34.4728L90.5317 34.497C90.5195 34.4728 90.5074 34.4728 90.5074 34.4728ZM124.363 17.2849C124.168 17.0061 123.962 16.7879 123.731 16.5819C123.682 16.0849 123.585 15.5879 123.403 15.1031C123.172 14.4485 122.831 13.8425 122.406 13.3091C121.981 12.7758 121.507 12.3152 120.984 11.9394C120.45 11.5516 119.915 11.2485 119.295 10.9819L119.21 10.9576L119.137 10.9455L92.4031 8.58187L82.2076 1.78187L82.1469 1.7455L82.0982 1.73338C79.923 1.06672 77.7357 0.872775 75.5484 0.666715C73.361 0.484897 71.1858 0.400049 69.0107 0.339442C64.6481 0.230352 60.2734 0.254593 55.9231 0.375806C53.7479 0.436412 51.5362 0.472775 49.3489 0.92126C47.1494 1.3455 45.0836 2.24247 43.1028 3.10308C42.0334 3.61217 41.1585 4.29096 40.2836 4.95762C39.4208 5.64853 38.6066 6.36368 37.7803 7.09096C36.1884 8.52126 34.6451 10.0122 33.1383 11.5516C31.9838 11.9758 30.8537 12.4728 29.7114 12.9334L26.2967 14.4243L26.236 14.4485L26.1752 14.4849C25.4461 14.994 24.96 15.5273 24.4618 16.1455C24 16.7516 23.5869 17.4182 23.2709 18.1213C22.955 18.8364 22.7241 19.5637 22.5782 20.3273C22.481 20.6788 22.4689 21.1273 22.4446 21.5516C22.4689 21.9758 22.5053 22.4 22.6147 22.7879C23.0157 24.3758 23.8907 25.6485 24.8385 26.7637C25.3246 27.3213 25.835 27.8304 26.3939 28.3152C26.6734 28.5576 26.9529 28.7758 27.2324 29.0061C27.2324 29.0061 27.3296 29.0788 27.4876 29.2C27.7428 29.3697 28.156 29.6485 28.6299 29.8546C28.7028 29.891 28.7757 29.9152 28.8486 29.9394C28.8486 29.8061 28.8486 29.6728 28.8486 29.5394C28.8608 29.3819 28.8486 29.2364 28.8486 29.0788C28.8122 29.0182 28.7636 28.9455 28.7028 28.897C28.6299 28.8243 28.6542 28.8485 28.6299 28.8243L28.5327 28.7273L28.3626 28.5334L28.0101 28.1576C27.7793 27.9031 27.5484 27.6485 27.3418 27.3819C26.9043 26.8485 26.479 26.3273 26.1023 25.7819C25.3246 24.691 24.6684 23.5273 24.4132 22.3758C24.3403 22.1091 24.3281 21.8546 24.316 21.6122V21.5273C24.3524 21.2607 24.3403 20.994 24.4132 20.6667C24.5226 20.0364 24.7048 19.4304 24.96 18.8485C25.2152 18.2546 25.519 17.697 25.8836 17.1879C26.2238 16.7031 26.6977 16.194 27.0866 15.8667L27.0137 15.9031L27.1109 15.8425C27.1109 15.8546 27.0988 15.8546 27.0866 15.8667L30.319 14.1819C31.4127 13.5758 32.5063 12.994 33.5879 12.3637L33.6729 12.3152L33.7215 12.2667C35.2405 10.7273 36.8081 9.22429 38.4 7.76975C39.2142 7.05459 40.0284 6.35156 40.8669 5.67278C41.6932 5.03035 42.5803 4.36369 43.4795 3.95156C45.4724 3.09096 47.4289 2.23035 49.5312 1.83035C51.6213 1.39399 53.7722 1.36974 55.9474 1.29702C60.2977 1.17581 64.6481 1.15156 68.9863 1.26065C71.1494 1.32126 73.3246 1.40611 75.4876 1.58793C77.6142 1.78187 79.7772 2.00005 81.758 2.60611L81.6972 2.55762L81.7944 2.61823C81.7823 2.61823 81.758 2.60611 81.758 2.60611L91.9656 9.43035L92.0628 9.49096L92.1843 9.50308L118.955 11.8788C118.931 11.8667 118.918 11.8546 118.906 11.8425L119.052 11.8788H118.955C119.38 12.1455 119.818 12.5091 120.207 12.8728C120.595 13.2728 120.924 13.697 121.191 14.1697C121.458 14.6182 121.628 15.1031 121.713 15.6C121.774 15.8304 121.786 16.0728 121.786 16.3152C121.786 16.5697 121.774 16.8243 121.738 17.0788L121.713 17.2728L121.677 17.8304L122.309 18.0607C122.443 18.097 122.71 18.2788 122.807 18.4243C122.941 18.5697 123.014 18.7152 123.038 18.897C123.111 19.2849 122.844 19.8182 122.455 20.3879C122.054 20.9576 121.604 21.5031 121.106 21.9879C120.632 22.4849 120.073 22.9455 119.514 23.2849V23.297L119.368 23.394L119.32 23.4546C119.004 23.9031 118.627 24.3516 118.25 24.7758C117.849 25.2122 117.448 25.6243 117.035 26.0122C116.196 26.8122 115.285 27.5394 114.337 28.194L114.155 28.3152L114.131 28.5576C114.118 28.7031 113.572 28.9697 113.56 29.1152C113.523 29.5516 113.645 29.891 113.56 30.3273C113.231 32.0849 112.089 33.4667 111.129 34.9334C109.853 36.9091 108.516 38.0364 106.147 38.2061C103.96 38.4485 101.784 38.9819 99.7428 38.3031L100.423 39.4546C102.368 39.9152 104.397 39.8667 106.329 39.6607C108.905 39.4788 111.396 37.9637 112.782 35.7819C114.143 33.6849 114.823 31.2728 115.042 28.8243C115.978 28.1819 116.853 27.4667 117.667 26.691C118.116 26.2788 118.53 25.8425 118.943 25.394C119.307 24.9697 119.672 24.5576 120.012 24.0849C120.729 23.7576 121.325 23.3576 121.908 22.897C122.528 22.4243 123.087 21.891 123.609 21.3091C124.107 20.7516 124.764 19.9879 124.8 18.8728C124.836 18.3031 124.654 17.7334 124.363 17.2849Z" fill="black"/>
<path d="M118.129 20.5213H71.4289C69.193 20.5213 67.3823 18.7152 67.3823 16.4849V16.1092C67.3823 13.8668 69.2173 12.0607 71.4654 12.0728L118.165 12.4486C120.389 12.4607 122.175 14.2668 122.175 16.4849C122.175 18.7152 120.365 20.5213 118.129 20.5213Z" fill="black"/>
<path d="M70.5297 19.0062C71.9391 19.0062 73.0816 17.72 73.0816 16.1335C73.0816 14.5469 71.9391 13.2607 70.5297 13.2607C69.1203 13.2607 67.9778 14.5469 67.9778 16.1335C67.9778 17.72 69.1203 19.0062 70.5297 19.0062Z" fill="white"/>
<path d="M75.9008 19.0062C77.3102 19.0062 78.4527 17.72 78.4527 16.1335C78.4527 14.5469 77.3102 13.2607 75.9008 13.2607C74.4914 13.2607 73.3489 14.5469 73.3489 16.1335C73.3489 17.72 74.4914 19.0062 75.9008 19.0062Z" fill="white"/>
<path d="M112.685 19.4061C114.094 19.4061 115.237 18.1199 115.237 16.5334C115.237 14.9468 114.094 13.6606 112.685 13.6606C111.275 13.6606 110.133 14.9468 110.133 16.5334C110.133 18.1199 111.275 19.4061 112.685 19.4061Z" fill="white"/>
<path d="M117.995 19.4061C119.404 19.4061 120.547 18.1199 120.547 16.5334C120.547 14.9468 119.404 13.6606 117.995 13.6606C116.586 13.6606 115.443 14.9468 115.443 16.5334C115.443 18.1199 116.586 19.4061 117.995 19.4061Z" fill="white"/>
<path d="M80.5914 23.1394C80.5914 23.1394 80.1904 24.897 80.5914 24.9818C80.9924 25.0667 105.296 24.9818 107.447 24.9818C109.598 24.9818 110.801 22.897 110.801 22.897L103.06 22.7879L102.343 21.9636L92.4031 21.7939L91.1757 23.1273H80.5914V23.1394Z" fill="black"/>
<path d="M48.3889 33.9758L48.5104 34.0728L48.2309 33.9758H48.3889Z" fill="white"/>
<path d="M90.5328 34.4854L90.5074 34.4727C90.5074 34.4727 90.5201 34.4727 90.5328 34.4854Z" fill="white"/>
<path d="M50.7099 30.0243L43.9413 41.9758L43.4309 42.8364L42.4952 42.788C35.1676 42.4971 27.9616 41.5395 20.8041 40.3152C13.6709 39.0668 6.59851 37.5758 -0.437439 35.7819L-0.121489 34.4728C6.90231 35.9395 14.0233 37.1152 21.1565 38.0243C27.9616 38.8849 34.7788 39.4668 41.5717 39.491L46.7362 30.0122H50.7099V30.0243Z" fill="black"/>
<path d="M93.2902 30.0244L100.059 41.9759L100.569 42.8365L101.505 42.788C108.832 42.4971 116.039 41.5396 123.196 40.3153C130.329 39.0668 137.402 37.5759 144.438 35.782L144.122 34.4729C137.098 35.9396 129.977 37.1153 122.844 38.0244C116.039 38.885 109.221 39.4668 102.428 39.4911L97.276 30.0244H93.2902Z" fill="black"/>
<path d="M44.8649 79.6243V73.697H51.0137V75.1273H46.8456V75.8788H49.8471V77.2849H46.8456V78.2061H51.0137V79.6364H44.8649V79.6243Z" fill="black"/>
<path d="M58.0132 73.7941L57.6972 75.2486C56.9195 75.1032 56.1418 75.0304 55.3519 75.0304C54.7079 75.0304 54.2947 75.0547 54.1246 75.1032C53.9423 75.1517 53.8451 75.2607 53.8451 75.4062C53.8694 75.5638 53.9666 75.6729 54.1124 75.7092C54.2704 75.7577 54.7443 75.8183 55.5464 75.891C56.4577 75.9759 57.1261 76.1577 57.5393 76.4486C57.9524 76.7395 58.159 77.1638 58.159 77.7214C58.159 78.4729 57.8795 78.9941 57.3327 79.285C56.798 79.5759 55.838 79.7214 54.4648 79.7214C53.3226 79.7214 52.4233 79.6365 51.7671 79.4789L52.1074 78.0123C52.8122 78.1577 53.5778 78.2304 54.4162 78.2304C55.0724 78.2304 55.4978 78.2062 55.68 78.1577C55.8623 78.1092 55.9595 78.0001 55.9595 77.8304C55.9474 77.7941 55.9474 77.7577 55.9352 77.7335C55.9231 77.7092 55.9231 77.685 55.9109 77.6607C55.8988 77.6365 55.8745 77.6123 55.8502 77.6001C55.8259 77.588 55.7894 77.5638 55.7529 77.5517C55.7165 77.5274 55.6557 77.5153 55.595 77.5032C55.5221 77.4911 55.4491 77.4789 55.3762 77.4547C55.2912 77.4426 55.194 77.4304 55.0603 77.4062C54.9266 77.3941 54.7929 77.382 54.6471 77.3577C54.5013 77.3456 54.3312 77.3335 54.1124 77.3092C53.2618 77.2365 52.6542 77.0789 52.2775 76.8244C51.9008 76.5698 51.7064 76.1698 51.7064 75.6365C51.7064 74.8729 51.998 74.3274 52.5691 74.0001C53.1524 73.6729 54.076 73.5032 55.3641 73.5032C56.5064 73.5517 57.3935 73.6244 58.0132 73.7941Z" fill="black"/>
<path d="M63.3236 75.1273V79.6364H61.3185V75.1273H58.5358V73.697H66.0821V75.1273H63.3236Z" fill="black"/>
<path d="M66.9206 78.0605C67.358 78.0605 67.6618 78.109 67.8077 78.2181C67.9656 78.303 68.0507 78.5212 68.0507 78.8484C68.0507 79.1999 67.9656 79.4424 67.8077 79.5515C67.6618 79.6605 67.3702 79.709 66.9206 79.709C66.4831 79.709 66.2036 79.6605 66.0578 79.5515C65.8998 79.4424 65.8269 79.2121 65.8269 78.8484C65.8269 78.5212 65.8998 78.3151 66.0578 78.2181C66.2036 78.109 66.4953 78.0605 66.9206 78.0605Z" fill="black"/>
<path d="M72.6563 75.2606L72.2917 73.8424C73.033 73.6485 74.0051 73.5515 75.2082 73.5515C76.2532 73.5515 77.0066 73.6606 77.4806 73.8909C77.9909 74.1455 78.2583 74.6303 78.2583 75.3697C78.2583 75.8545 78.1489 76.2545 77.9302 76.5576C77.833 76.7151 77.6385 76.8848 77.3591 77.0545C77.0431 77.2485 76.7515 77.4182 76.4598 77.5515C76.1803 77.697 75.7185 77.903 75.0745 78.1939H78.3312V79.6242H72.1094V78.2545L72.1337 78.2424C74.0416 77.2606 75.1596 76.6667 75.4877 76.4606C75.8401 76.2303 76.0466 76.0121 76.0831 75.8182L76.0953 75.5515C76.0953 75.3455 76.0223 75.2 75.8522 75.1273C75.6942 75.0545 75.3904 75.0182 74.9287 75.0182C74.236 75.0061 73.4704 75.0909 72.6563 75.2606Z" fill="black"/>
<path d="M85.671 76.5818C85.671 77.7576 85.4158 78.5818 84.8932 79.0545C84.3829 79.5152 83.5687 79.7576 82.475 79.7576C81.3813 79.7576 80.5672 79.5273 80.0446 79.0545C79.5343 78.5939 79.2669 77.7697 79.2669 76.5818C79.2669 75.4061 79.5464 74.6061 80.0932 74.1697C80.3727 73.9515 80.7008 73.7939 81.0654 73.697C81.4421 73.6 81.9039 73.5515 82.4629 73.5515C83.0218 73.5515 83.4836 73.6 83.8603 73.697C84.237 73.7939 84.553 73.9515 84.8325 74.1697C85.3915 74.5939 85.671 75.4061 85.671 76.5818ZM82.475 78.2424C82.7788 78.2424 82.9975 78.2303 83.1555 78.1939C83.3135 78.1576 83.4229 78.097 83.5079 77.9879C83.5687 77.9152 83.6051 77.8182 83.6294 77.6849C83.678 77.503 83.7024 77.1273 83.7024 76.5818C83.7024 76.1939 83.6902 75.9152 83.678 75.7455C83.6659 75.5636 83.6173 75.4182 83.5201 75.297C83.435 75.1879 83.3256 75.1152 83.192 75.0909C83.0583 75.0667 82.8274 75.0545 82.4872 75.0545C82.1591 75.0545 81.9282 75.0667 81.7945 75.0909C81.6608 75.1152 81.5636 75.1879 81.4664 75.297C81.3813 75.4061 81.3206 75.5394 81.2963 75.7091C81.272 75.8788 81.2598 76.1697 81.2598 76.5939C81.2598 76.9212 81.2598 77.1394 81.272 77.2485C81.2841 77.5758 81.3449 77.8303 81.4542 77.9879C81.5758 78.1455 81.916 78.2424 82.475 78.2424Z" fill="black"/>
<path d="M90.8598 73.4546V79.6243H88.9277V75.4425L86.9348 75.9879L86.4244 74.5334L90.8598 73.4546Z" fill="black"/>
<path d="M93.4482 75.2606L93.0836 73.8424C93.8249 73.6485 94.797 73.5515 96.0001 73.5515C97.0451 73.5515 97.7986 73.6606 98.2725 73.8909C98.7829 74.1455 99.0502 74.6303 99.0502 75.3697C99.0502 75.8545 98.9408 76.2545 98.7221 76.5576C98.6249 76.7151 98.4305 76.8848 98.151 77.0545C97.835 77.2485 97.5434 77.4182 97.2517 77.5515C96.9722 77.697 96.5105 77.903 95.8664 78.1939H99.1231V79.6242H92.9013V78.2545L92.9256 78.2424C94.8335 77.2606 95.9515 76.6667 96.2796 76.4606C96.632 76.2303 96.8386 76.0121 96.875 75.8182L96.8872 75.5515C96.8872 75.3455 96.8142 75.2 96.6441 75.1273C96.4861 75.0545 96.1824 75.0182 95.7206 75.0182C95.0279 75.0061 94.2623 75.0909 93.4482 75.2606Z" fill="black"/>
<path d="M-0.27948 73.697V74.9576L40.0405 77.0667V73.697H-0.27948Z" fill="black"/>
<path d="M144.267 73.697V74.9576L103.96 77.0667V73.697H144.267Z" fill="black"/>
<path d="M93.0714 38.3759C92.9499 38.8365 92.7676 39.2243 92.5125 39.5395C92.2694 39.8425 91.9778 40.0849 91.6618 40.2668C91.3459 40.4486 91.0056 40.5819 90.6411 40.6546C90.2765 40.7274 89.9362 40.7758 89.596 40.7758H84.0426L83.3135 43.6122H77.6264L80.0082 34.2546H91.516C91.7226 34.2546 91.9413 34.2789 92.1965 34.3274C92.4395 34.3759 92.6704 34.4486 92.877 34.5577C93.0836 34.6668 93.2659 34.8243 93.4117 35.0304C93.5575 35.2243 93.6304 35.4789 93.6426 35.794C93.6547 36.0001 93.6183 36.2425 93.5332 36.5455L93.0714 38.3759ZM87.8704 36.594C87.9069 36.4971 87.919 36.4122 87.9312 36.3395C87.9433 36.2668 87.9433 36.2062 87.9433 36.1455C87.9433 36.0122 87.8947 35.9152 87.8097 35.8668C87.7246 35.8183 87.5788 35.794 87.3722 35.794H85.3185L84.4557 39.1637H86.4C86.6795 39.1637 86.8983 39.1152 87.0563 39.0062C87.2142 38.9092 87.3357 38.691 87.4208 38.3637L87.8704 36.594Z" fill="black"/>
<path d="M55.7043 43.6122L55.5585 41.9637H51.6578L50.6127 43.6122H48.6684L54.3555 34.2546H61.0026L61.7317 43.6122H55.7043ZM55.2669 36.0243L52.7271 40.291H55.4613L55.2669 36.0243Z" fill="black"/>
<path d="M64.3808 43.6122C63.7975 43.6122 63.3722 43.491 63.0927 43.2607C62.8132 43.0304 62.6674 42.7031 62.6431 42.2789C62.6309 42.0365 62.6552 41.794 62.7281 41.5274L64.0648 36.3274C64.1377 36.0365 64.2471 35.7698 64.3808 35.5152C64.5145 35.2607 64.7089 35.0425 64.9276 34.8607C65.1463 34.6668 65.4137 34.5213 65.7053 34.4122C66.0091 34.3031 66.3615 34.2546 66.7626 34.2546H77.0309L76.6299 35.8183H70.639C70.4203 35.8183 70.238 35.891 70.0557 36.0243C69.8734 36.1577 69.7762 36.3274 69.7276 36.5213L68.5003 41.3577C68.476 41.4668 68.4638 41.5516 68.4638 41.6365C68.476 41.9152 68.719 42.0607 69.1808 42.0607H71.5382L72.158 39.588H70.6633L71.0765 38.0001H78.0152L76.5813 43.6122H64.3808Z" fill="black"/>
<path d="M142.639 52.8121C140.184 53.1393 138.957 53.2848 136.514 53.5878L135.396 53.7212L135.384 60.2909L137.657 60.4121V62.0242C137.547 62.0727 137.426 62.1212 137.292 62.1696C136.891 62.3151 136.454 62.3999 136.004 62.4121H135.858C135.19 62.4121 134.655 62.2181 134.218 61.8302C133.707 61.3818 133.331 60.7515 133.051 59.8787C132.747 58.9212 132.589 57.7454 132.589 56.3878V55.3939C132.589 53.9393 132.759 52.6303 133.075 51.503C133.379 50.4363 133.805 49.5515 134.364 48.8848C134.862 48.2787 135.457 47.903 136.162 47.7696C136.405 47.7212 136.624 47.6969 136.83 47.6969C137.037 47.6969 137.231 47.7212 137.414 47.7696C137.572 47.8181 137.705 47.8666 137.815 47.9393L138.52 52.0242L139.686 51.8302C140.816 51.6484 141.375 51.5515 142.505 51.3575L143.563 51.1757V43.1999L143.162 42.7636C142.129 41.6605 140.901 40.9575 139.504 40.6666C138.933 40.5454 138.337 40.4848 137.742 40.4848C137.001 40.4848 136.235 40.5818 135.457 40.7636C133.562 41.2121 131.897 42.1939 130.499 43.6727C129.491 44.7272 128.664 45.9757 127.996 47.3939L128.008 42.7757L126.55 43.0666C125.809 43.2121 125.444 43.2848 124.703 43.4302C122.406 43.8787 121.288 44.0848 118.979 44.4848L117.922 44.6666L117.898 50.1696L120.194 50.2909L120.17 55.3333C118.408 51.9636 117.047 49.5393 115.018 45.9757L114.592 45.2242L113.827 45.3454C112.247 45.5878 111.457 45.709 109.877 45.9272C109.136 46.0242 108.772 46.0848 108.03 46.1818L106.852 46.3393C103.802 46.7272 102.307 46.8969 99.2567 47.1999L98.1266 47.309L98.1023 52.4484L99.9737 52.6909L99.9251 63.6848L99.4755 63.7939L99.4876 60.3757L98.1995 60.4121C97.0086 60.4484 94.3352 60.5212 94.3352 60.5212L94.0922 60.5333L93.9463 63.2121L91.7468 63.2484L91.7833 53.3818C92.403 53.2242 93.9706 52.8484 93.9706 52.8484L93.9949 47.6848L92.6582 47.7818C91.7833 47.8424 91.358 47.8787 90.483 47.9393C88.9276 48.0484 88.1499 48.0969 86.5944 48.1818C85.841 48.2181 85.4765 48.2424 84.7231 48.2787L83.5322 48.3393V50.0848C82.6572 49.4666 81.7094 49.0181 80.7129 48.7272C79.6193 48.4242 78.4527 48.2666 77.2253 48.2666H76.9458C75.0137 48.303 73.3124 48.7515 71.8906 49.5999C70.7241 50.303 69.7519 51.2242 68.9985 52.3636V48.5575L67.7712 48.5333C64.879 48.4848 63.4694 48.4484 60.5772 48.3272L59.2891 48.2787L59.3013 53.4302L60.2734 53.5757C59.8846 54.2424 59.5322 54.8606 59.119 55.5757C58.7301 54.7999 58.402 54.1333 58.0375 53.3939L58.5479 53.3333L58.5357 48.2545L57.3448 48.1939C54.3919 48.0363 52.9458 47.9393 50.0051 47.709L48.6684 47.5999V49.1393C47.9028 48.5333 47.0886 48.0484 46.238 47.6848C45.0471 47.1878 43.7833 46.8605 42.4709 46.7151C42.0456 46.6666 41.6324 46.6424 41.2314 46.6424C39.7732 46.6424 38.4608 46.9575 37.3306 47.5757C35.836 48.3999 34.6694 49.6848 33.8795 51.3818C33.6486 51.8787 33.442 52.4121 33.2841 52.9696L33.2355 45.8181L32.1539 45.6606C26.5762 44.8484 23.8542 44.3878 18.3008 43.2848L16.8425 42.9939L16.8547 47.8787C16.7332 47.503 16.5874 47.1393 16.4294 46.7878C15.7975 45.4181 14.8861 44.2545 13.7317 43.3333C12.5894 42.4242 11.2405 41.7818 9.70937 41.4302C6.31899 40.6545 4.65419 40.2424 1.25165 39.3575L-0.267334 38.9575V45.2363L-0.109359 45.3212C-0.109359 45.3212 1.25165 46.0484 1.60406 46.2302L1.61621 62.5212C1.08153 62.6666 -0.255183 63.0181 -0.255183 63.0181V69.1151L9.8552 69.1515L9.84305 63.4909C10.2076 64.8605 10.5965 66.2909 11.0947 68.1454L11.3742 69.1515L17.1949 69.1636L33.5879 69.1999L33.5636 63.0545C33.6972 63.4181 33.843 63.7696 34.001 64.109C34.8395 65.8666 36.0425 67.2242 37.5494 68.1454C39.0076 69.0424 40.721 69.4909 42.6289 69.4909C44.0749 69.4909 45.3995 69.2848 46.5661 68.8969C47.7205 68.509 48.7048 68.0242 49.4947 67.4666L50.1023 67.0424L50.078 60.2181L44.9377 60.0606L44.5003 63.0909C44.3301 63.1393 44.1479 63.1878 43.9656 63.2242C43.5767 63.309 43.1879 63.3575 42.799 63.3575H42.7018C41.9727 63.3454 41.3651 63.1515 40.8425 62.7515C40.3079 62.3515 39.9068 61.7939 39.6152 61.0545C39.2993 60.2666 39.1291 59.2969 39.1291 58.206V57.406C39.1291 56.2666 39.2749 55.3333 39.5666 54.606C39.8339 53.9515 40.1863 53.4909 40.6481 53.1999C41.037 52.9454 41.4987 52.8242 42.0577 52.8242C42.1792 52.8242 42.3008 52.8242 42.4344 52.8363C42.7747 52.8727 43.0906 52.9212 43.3701 53.0181C43.6496 53.103 43.9048 53.2121 44.1479 53.3454C44.2451 53.3939 44.3423 53.4545 44.4273 53.5151L44.9013 56.8969L45.8977 56.9575C47.04 57.0303 47.6233 57.0666 48.7656 57.1272L50.078 57.1999L50.0658 53.0545L50.9651 53.2484C52.8486 56.8121 53.918 58.7999 55.7165 62.0848V63.806L53.8572 64.1818L53.8694 69.2363L63.9676 69.2484L63.9555 64.2424L62.0841 63.8545V61.8666C63.8825 58.7151 64.9033 56.9575 66.6775 53.903C67.042 53.8545 67.7711 53.7575 68.2694 53.6969C67.6253 55.1272 67.2972 56.7636 67.2972 58.5454V59.2484C67.2972 61.3575 67.7347 63.2121 68.5853 64.7636C69.436 66.303 70.6268 67.503 72.1337 68.3272C73.5919 69.1151 75.281 69.5151 77.1524 69.5151C78.5985 69.5151 79.923 69.3212 81.0775 68.9454C82.001 68.6424 82.8152 68.2909 83.52 67.8787V69.2606L98.3332 69.2484L116.962 69.2121L116.986 63.7454C116.986 63.7454 115.334 63.4545 114.677 63.3454L114.702 58.6302C116.427 61.6727 117.825 64.303 120 68.509L120.389 69.1999L126.1 69.1878L126.173 49.3696C126.477 49.2363 127.036 48.9939 127.461 48.7999C127.437 48.8605 127.413 48.9212 127.388 48.9939C126.659 51.0787 126.307 53.3212 126.295 55.8545V56.7878C126.283 59.2363 126.635 61.3454 127.376 63.2363C128.13 65.1636 129.235 66.703 130.682 67.8181C132.152 68.9575 133.926 69.5393 135.943 69.5393C137.523 69.5393 138.969 69.2727 140.233 68.7393C141.545 68.1939 142.7 67.3939 143.672 66.3636L144.085 65.9272V52.6302L142.639 52.8121ZM7.97165 62.7515V59.6242L8.83444 59.709C9.17469 61.0302 9.47849 62.1696 9.78229 63.3333C9.78229 63.3333 8.49419 62.9212 7.97165 62.7515ZM10.7423 52.4242C10.5965 52.5818 10.3291 52.6666 9.96456 52.6666C9.8552 52.6666 9.73368 52.6545 9.60001 52.6424C8.93165 52.5575 8.45773 52.4969 7.94735 52.4242V48.2424C8.33621 48.3151 8.73722 48.3999 9.27191 48.4969C9.86735 48.606 10.2927 48.8727 10.5722 49.3212C10.8881 49.806 11.0461 50.4121 11.0461 51.1636C11.0461 51.7818 10.9489 52.2181 10.7423 52.4242ZM17.9119 63.3212L17.5838 63.406C17.1949 63.2727 16.636 63.0909 16.3443 62.9818C15.7489 61.0909 15.3357 59.7575 14.8132 58.0484C15.4572 57.4303 16.0041 56.6909 16.4294 55.8302C17.0734 54.5333 17.4015 53.0545 17.3894 51.4302C17.3894 50.5333 17.2922 49.6727 17.1099 48.8605C17.3894 48.9818 18.2765 49.3575 18.7139 49.5515L18.7625 63.1151L17.9119 63.3212ZM25.1058 51.1515C26.0294 51.2848 26.7949 51.3939 27.7671 51.5151L27.8886 53.4909C26.9529 53.406 26.1387 53.3212 25.118 53.2121L25.1058 51.1515ZM32.7251 57.9878C32.7251 58.8484 32.798 59.6848 32.9195 60.4969L28.2046 60.2909L28.083 62.703C27.038 62.6787 26.2117 62.6424 25.1544 62.6181L25.1423 59.8181C26.6734 59.9393 27.7914 60.0121 29.6385 60.1333L30.963 60.2181L30.9387 54.206C31.2304 54.2424 32.9438 54.4121 32.9438 54.4121C32.798 55.2848 32.7251 56.206 32.7251 57.1757V57.9878ZM85.3549 63.8424L84.5894 64.0121L84.6015 60.4363L83.3377 60.4484C82.1955 60.4606 79.6679 60.4969 79.6679 60.4969H79.4491L78.9995 63.3333C78.8172 63.3939 78.6349 63.4424 78.4405 63.4787C78.0152 63.5757 77.5777 63.6242 77.1524 63.6242C76.4112 63.6242 75.8036 63.4545 75.2689 63.103C74.7585 62.7636 74.3696 62.2909 74.0901 61.6606C73.7985 60.9939 73.6405 60.1939 73.6405 59.2606V58.5454C73.6405 57.5757 73.7863 56.7393 74.078 56.0969C74.3453 55.4787 74.722 55.0181 75.2203 54.6909C75.7306 54.3515 76.3625 54.1696 77.1038 54.1575H77.201C77.5048 54.1575 77.7965 54.1818 78.0517 54.2303C78.3311 54.2787 78.5863 54.3636 78.8172 54.4605C78.878 54.4848 78.9387 54.5212 78.9995 54.5454L79.4613 57.7212L80.5306 57.6969C81.6729 57.6727 82.2562 57.6606 83.3985 57.6242L84.6137 57.5878L84.6258 53.5151L85.4157 53.6484L85.3549 63.8424ZM108.674 63.5151L107.459 63.8181L106.281 63.5757L106.341 52.0969C106.694 51.9757 107.301 51.7696 107.678 51.6484L108.735 51.7696L108.674 63.5151Z" fill="black"/>
<path d="M0.972168 66.6062C0.972168 65.2123 0.972168 64.5092 0.972168 63.1153C1.72559 62.9092 2.09014 62.8123 2.84356 62.6183C2.84356 55.2607 2.84356 51.5759 2.83141 44.2183C2.09014 43.8304 1.71343 43.6365 0.972168 43.2365C0.972168 41.8304 0.972168 41.1274 0.972168 39.7092C4.36255 40.5941 6.06381 41.0183 9.46634 41.7941C10.8395 42.1092 12.0182 42.6668 13.0147 43.4668C14.0112 44.2668 14.7889 45.2486 15.3236 46.4123C15.8582 47.5759 16.1377 48.885 16.1377 50.3517C16.1377 51.7214 15.8825 52.9335 15.3479 54.0123C14.8132 55.091 14.0719 55.9274 13.1241 56.5213C12.1762 57.1153 11.0825 57.3698 9.85521 57.2607C8.60356 57.1395 7.97166 57.0789 6.72002 56.9456C6.72002 59.2729 6.72002 60.4365 6.73217 62.7638C7.47343 63.0062 7.85014 63.1274 8.59141 63.3698C8.59141 64.6668 8.59141 65.3213 8.59141 66.6183C5.54128 66.6304 4.02229 66.6183 0.972168 66.6062ZM6.70786 52.6668C7.81369 52.8123 8.36052 52.885 9.46634 53.0304C10.3899 53.1517 11.0947 52.9456 11.5686 52.4486C12.0425 51.9517 12.2856 51.1759 12.2734 50.1092C12.2734 49.0183 12.0304 48.1213 11.5443 47.382C11.0582 46.6426 10.3656 46.182 9.45419 46.0123C8.34837 45.8062 7.78938 45.6971 6.68356 45.4668C6.70786 48.3395 6.70786 49.782 6.70786 52.6668ZM12.2734 66.6547C11.1798 62.6547 10.6451 60.6183 9.55141 56.4244C10.9246 55.988 11.6172 55.782 12.9904 55.3698C13.9504 58.5213 14.4243 60.0729 15.3843 63.1032C16.0162 63.3213 16.3443 63.4304 16.9762 63.6486C16.9762 64.8607 16.9884 65.4547 16.9884 66.6668C15.1048 66.6547 14.157 66.6547 12.2734 66.6547Z" fill="#FE2818"/>
<path d="M18.1671 66.6669C18.1671 65.4669 18.1549 64.8729 18.1549 63.685C18.9084 63.5154 19.2729 63.4184 20.0263 63.2487C20.002 56.9335 19.9899 53.7699 19.9656 47.4547C19.2122 47.1396 18.8476 46.982 18.0942 46.6547C18.0942 45.4547 18.082 44.8487 18.082 43.6487C23.6354 44.7396 26.4182 45.2244 31.996 46.0244C32.0081 48.3275 32.0081 49.479 32.0203 51.782C30.8415 51.6608 30.2461 51.5881 29.0674 51.4547C29.0066 50.5214 28.9823 50.0487 28.9215 49.1153C26.8922 48.8487 25.8714 48.7032 23.842 48.4123C23.8542 50.4244 23.8542 51.4305 23.8663 53.4426C26.1873 53.685 27.3539 53.8063 29.6871 54.0244C29.6992 55.4547 29.6992 56.1578 29.6992 57.5881C27.3661 57.4305 26.2117 57.3456 23.8785 57.1638C23.8906 59.479 23.8906 60.6305 23.9028 62.9335C26.0415 63.0063 27.0987 63.0305 29.2375 63.0911C29.2861 62.1335 29.3104 61.6487 29.359 60.6911C30.5256 60.7396 31.121 60.776 32.2876 60.8244C32.2998 63.1638 32.2998 64.3275 32.3119 66.6669C26.6613 66.6911 23.8299 66.679 18.1671 66.6669Z" fill="#FE2818"/>
<path d="M42.6168 66.9942C40.9155 66.9942 39.4087 66.6063 38.1206 65.8184C36.8203 65.0184 35.8117 63.8669 35.0826 62.3517C34.3535 60.8366 33.9889 59.0184 33.9768 56.9093C33.9768 56.5942 33.9768 56.4245 33.9768 56.1093C33.9646 54.1336 34.3049 52.4245 34.9732 50.982C35.6416 49.5517 36.6137 48.4851 37.8654 47.7942C39.117 47.1032 40.6238 46.8729 42.3616 47.0548C43.5768 47.1881 44.7312 47.4911 45.8127 47.9396C46.8942 48.4002 47.8907 49.0548 48.7778 49.9154C48.7899 51.782 48.7899 52.7275 48.8021 54.5942C47.6598 54.5336 47.0886 54.4972 45.9464 54.4245C45.7884 53.2729 45.7033 52.7032 45.5454 51.5517C45.2659 51.3336 44.9742 51.1275 44.6704 50.9578C44.3666 50.7881 44.0264 50.6426 43.674 50.5336C43.3216 50.4245 42.9327 50.3517 42.5195 50.3154C41.5595 50.2305 40.7332 50.4002 40.0406 50.8487C39.3479 51.2972 38.8132 51.976 38.4365 52.9093C38.0598 53.8426 37.8775 54.982 37.8775 56.3396C37.8775 56.6669 37.8775 56.8245 37.8775 57.1396C37.8897 58.4487 38.0841 59.6123 38.4851 60.5942C38.8861 61.5881 39.4451 62.3517 40.1621 62.8972C40.8912 63.4426 41.7297 63.7214 42.6775 63.7336C43.1757 63.7457 43.6861 63.6972 44.1843 63.576C44.6826 63.4669 45.1565 63.3214 45.594 63.1396C45.7519 62.073 45.8249 61.5396 45.9828 60.473C47.1251 60.5093 47.6962 60.5214 48.8385 60.5578C48.8507 62.3881 48.8507 63.3093 48.8628 65.1396C48.1702 65.6366 47.2952 66.0608 46.238 66.4123C45.1565 66.8123 43.9535 66.9942 42.6168 66.9942Z" fill="#FE2818"/>
<path d="M55.0724 66.7395C55.0724 65.794 55.0724 65.3092 55.0602 64.3637C55.8015 64.2183 56.1782 64.1456 56.9195 63.988C56.9195 62.6425 56.9195 61.9637 56.9073 60.6062C54.8172 56.788 53.7721 54.8486 51.682 50.8728C50.9651 50.7152 50.6127 50.6425 49.9078 50.4849C49.9078 49.5152 49.9078 49.0183 49.8957 48.0486C52.8486 48.2789 54.319 48.388 57.2719 48.5334C57.2719 49.4789 57.2719 49.9516 57.2841 50.9092C56.7615 50.9698 56.5063 51.0062 55.9959 51.0546C57.0896 53.2849 57.6243 54.388 58.718 56.5819C58.8273 56.8243 58.8881 56.9455 58.9975 57.188C59.0339 57.188 59.0461 57.188 59.0825 57.188C59.2041 56.9577 59.2527 56.8486 59.3742 56.6183C60.6015 54.4849 61.2091 53.4183 62.4365 51.3092C61.6709 51.2001 61.2942 51.1516 60.5286 51.0425C60.5286 50.0971 60.5286 49.6243 60.5286 48.691C63.4208 48.8122 64.8547 48.8486 67.7468 48.8971C67.7468 49.8304 67.7468 50.291 67.7468 51.2243C67.0299 51.3213 66.6653 51.3577 65.9484 51.4546C63.8947 55.0062 62.8618 56.7759 60.8081 60.3516C60.8081 61.8183 60.8081 62.5456 60.8203 64.0001C61.5737 64.1577 61.9382 64.2425 62.6916 64.388C62.6916 65.3213 62.6916 65.7819 62.6916 66.7153C59.6415 66.7395 58.1225 66.7395 55.0724 66.7395Z" fill="#FE2818"/>
<path d="M77.1038 66.994C75.4026 66.994 73.9079 66.6425 72.6076 65.9395C71.3074 65.2364 70.2988 64.2304 69.5818 62.9092C68.8648 61.6001 68.5003 60.0122 68.5003 58.1819C68.5003 57.9031 68.5003 57.7577 68.5003 57.4789C68.5003 55.7577 68.8405 54.2304 69.521 52.9092C70.2015 51.588 71.1737 50.5577 72.4375 49.794C73.7013 49.0425 75.2081 48.6425 76.9458 48.6183C78.161 48.594 79.3155 48.7274 80.397 49.0425C81.4785 49.3455 82.4628 49.8546 83.3499 50.5819C83.3499 52.3758 83.3377 53.2849 83.3377 55.0789C82.1955 55.1152 81.6243 55.1274 80.4699 55.1516C80.3119 54.0849 80.239 53.5395 80.081 52.4728C79.8015 52.291 79.5099 52.1334 79.2061 52.0001C78.9023 51.8668 78.562 51.7698 78.2096 51.6971C77.8572 51.6243 77.4684 51.6001 77.0552 51.6122C76.0952 51.6243 75.2689 51.8668 74.5641 52.3395C73.8593 52.8122 73.3246 53.4789 72.9479 54.3395C72.5712 55.2001 72.3767 56.2425 72.3767 57.4546C72.3767 57.7455 72.3767 57.891 72.3767 58.1819C72.3767 59.3577 72.5712 60.3758 72.9722 61.2607C73.361 62.1334 73.92 62.8122 74.6491 63.2971C75.3661 63.7819 76.2046 64.0122 77.1646 64.0122C77.6628 64.0122 78.1732 63.9516 78.6714 63.8425C79.1696 63.7334 79.6436 63.5758 80.081 63.394C80.239 62.388 80.3241 61.8789 80.482 60.8607C81.6243 60.8486 82.1955 60.8364 83.3377 60.8243C83.3377 62.594 83.3377 63.4668 83.3256 65.2365C82.6329 65.7213 81.7458 66.1334 80.6886 66.4728C79.6436 66.8243 78.4405 66.994 77.1038 66.994Z" fill="#FE2818"/>
<path d="M84.7109 66.7396C84.7109 65.7942 84.7109 65.3336 84.7109 64.3881C85.4643 64.2305 85.8289 64.1457 86.5823 63.9881C86.5945 58.9093 86.6066 56.376 86.6188 51.2972C85.8653 51.176 85.4886 51.1154 84.7474 50.9942C84.7474 50.0487 84.7474 49.576 84.7474 48.6305C85.5008 48.5942 85.8775 48.582 86.6309 48.5336C88.1864 48.4487 88.9762 48.4002 90.5317 48.2911C91.4066 48.2305 91.8441 48.2063 92.719 48.1335C92.719 49.1032 92.719 49.5881 92.7069 50.5578C91.8319 50.776 91.3945 50.8851 90.5195 51.0911C90.5074 56.1093 90.4952 58.6063 90.4709 63.6245C92.318 63.6002 93.2415 63.5881 95.0886 63.5639C95.1494 62.4851 95.1737 61.9396 95.2345 60.8608C96.4253 60.8245 97.0208 60.8123 98.1995 60.776C98.1874 63.1517 98.1874 64.3396 98.1752 66.7154C92.8041 66.7275 90.1063 66.7396 84.7109 66.7396Z" fill="#FE2818"/>
<path d="M99.2689 66.7274C99.2689 65.7334 99.281 65.2365 99.281 64.2425C100.034 64.0728 100.411 63.9759 101.152 63.8062C101.177 58.4122 101.189 55.7092 101.213 50.3152C100.46 50.2183 100.095 50.1698 99.3418 50.0728C99.3418 49.0668 99.3539 48.5698 99.3539 47.5759C102.404 47.2728 103.923 47.1031 106.973 46.7031C106.973 47.7455 106.961 48.2668 106.961 49.3092C106.22 49.5637 105.843 49.6849 105.102 49.9274C105.077 55.4425 105.065 58.2062 105.041 63.7213C105.782 63.8789 106.159 63.9516 106.9 64.1092C106.9 65.1516 106.888 65.6728 106.888 66.7031C103.826 66.7152 102.307 66.7152 99.2689 66.7274Z" fill="#FE2818"/>
<path d="M108.055 66.7031C108.055 65.6607 108.067 65.1274 108.067 64.085C108.808 63.9032 109.173 63.8062 109.914 63.6122C109.938 57.9153 109.95 55.0789 109.987 49.3819C109.246 49.2971 108.881 49.2486 108.14 49.1638C108.14 48.1092 108.152 47.588 108.152 46.5335C108.893 46.4365 109.258 46.388 109.999 46.2789C111.579 46.0607 112.381 45.9395 113.961 45.6971C116.901 50.8486 118.372 53.5395 121.3 59.2971C121.325 59.285 121.349 59.285 121.373 59.2728C121.397 54.691 121.397 52.4001 121.422 47.8183C120.51 47.7698 120.049 47.7456 119.125 47.6971C119.125 46.5577 119.137 45.988 119.137 44.8486C121.434 44.4486 122.588 44.2425 124.885 43.7941C125.626 43.6486 126.003 43.5759 126.744 43.4304C126.744 44.6425 126.732 45.2486 126.732 46.4607C125.991 46.788 125.614 46.9456 124.873 47.2607C124.849 55.0183 124.824 58.8971 124.8 66.6547C123.281 66.6547 122.515 66.6668 120.996 66.6668C117.995 60.8486 116.488 58.1213 113.487 52.9213C113.462 52.9213 113.438 52.9213 113.414 52.9335C113.389 57.1759 113.389 59.2971 113.365 63.5274C114.289 63.685 114.75 63.7577 115.674 63.9274C115.674 65.0304 115.662 65.588 115.662 66.691C112.624 66.7032 111.105 66.7031 108.055 66.7031Z" fill="#FE2818"/>
<path d="M135.895 66.9941C134.096 66.9941 132.577 66.485 131.326 65.5153C130.074 64.5456 129.126 63.2244 128.47 61.5395C127.814 59.8547 127.498 57.9274 127.498 55.6971C127.498 55.3214 127.498 55.1395 127.498 54.7638C127.51 52.4244 127.838 50.3395 128.494 48.4486C129.15 46.5577 130.086 44.9698 131.313 43.6729C132.541 42.3759 133.999 41.5153 135.688 41.1153C136.915 40.8244 138.119 40.788 139.273 41.0183C140.427 41.2608 141.436 41.8304 142.311 42.7638C142.311 45.2001 142.311 46.4123 142.311 48.8486C141.193 49.0426 140.622 49.1395 139.504 49.3214C139.273 48.0001 139.164 47.3456 138.933 46.0365C138.629 45.6971 138.228 45.4426 137.718 45.285C137.207 45.1274 136.612 45.1274 135.955 45.2608C134.983 45.4547 134.145 45.9759 133.464 46.8001C132.784 47.6244 132.261 48.6789 131.897 49.9638C131.532 51.2486 131.35 52.6911 131.35 54.3032C131.35 54.7032 131.35 54.8971 131.35 55.2971C131.35 56.8486 131.52 58.182 131.885 59.2971C132.249 60.4244 132.772 61.2971 133.464 61.9032C134.157 62.5092 135.02 62.8123 136.041 62.7759C136.612 62.7517 137.146 62.6547 137.657 62.4607C138.167 62.2789 138.58 62.0608 138.896 61.8183C138.896 60.2547 138.896 59.4789 138.896 57.9274C137.985 57.8789 137.535 57.8547 136.624 57.8062C136.624 56.2547 136.624 55.4911 136.624 53.9395C139.079 53.6486 140.306 53.4911 142.761 53.1638C142.761 57.5638 142.761 59.7577 142.761 64.1577C141.898 65.0668 140.901 65.7577 139.747 66.2426C138.605 66.7638 137.316 66.9941 135.895 66.9941Z" fill="#FE2818"/>
<path d="M96.6684 30.0244H46.7241V31.9517H96.6684V30.0244Z" fill="black"/>
<path d="M80.5914 13.4182C82.9732 13.3939 85.355 13.3818 87.7489 13.3939C90.6168 13.406 92.0507 13.406 94.9185 13.4182C97.7864 13.4424 99.2325 13.4545 102.1 13.4788C104.494 13.503 106.888 13.5394 109.294 13.5879C109.391 13.5879 109.477 13.6485 109.489 13.7212C109.501 13.7939 109.44 13.8424 109.355 13.8424C106.973 13.8666 104.579 13.8788 102.198 13.8666C99.3297 13.8545 97.8957 13.8545 95.0279 13.8424C92.16 13.8182 90.7261 13.806 87.8461 13.7818C85.4522 13.7576 83.0583 13.7212 80.6643 13.6727C80.5671 13.6727 80.4821 13.6121 80.4699 13.5394C80.4335 13.4788 80.4942 13.4182 80.5914 13.4182Z" fill="#A51309"/>
<path d="M80.7616 14.4121C83.1433 14.3878 85.5373 14.3757 87.919 14.3878C90.7869 14.3999 92.2208 14.3999 95.0886 14.4121C97.9565 14.4363 99.3904 14.4484 102.258 14.4727C104.652 14.4969 107.034 14.5333 109.428 14.5939C109.525 14.5939 109.598 14.6545 109.598 14.7272C109.598 14.7999 109.525 14.8484 109.44 14.8605C107.058 14.8848 104.664 14.8969 102.27 14.8848C99.4026 14.8727 97.9686 14.8727 95.1008 14.8605C92.2329 14.8363 90.799 14.8242 87.9312 14.7999C85.5372 14.7757 83.1555 14.7272 80.7616 14.6787C80.6643 14.6787 80.5914 14.6181 80.5914 14.5454C80.6036 14.4727 80.6765 14.4121 80.7616 14.4121Z" fill="#A51309"/>
<path d="M80.7615 15.4182C83.1555 15.3939 85.5372 15.3818 87.9312 15.3939C90.799 15.406 92.2329 15.406 95.0886 15.4182C97.9565 15.4424 99.3783 15.4545 102.246 15.4788C104.628 15.503 107.01 15.5515 109.391 15.6C109.489 15.6 109.549 15.6606 109.537 15.7333C109.525 15.806 109.44 15.8666 109.355 15.8666C106.961 15.8909 104.567 15.903 102.185 15.8909C99.3175 15.8788 97.8836 15.8788 95.0279 15.8666C92.1722 15.8424 90.7383 15.8303 87.8704 15.806C85.4886 15.7818 83.1069 15.7333 80.7251 15.6848C80.6279 15.6848 80.5671 15.6242 80.5793 15.5515C80.5914 15.4788 80.6643 15.4182 80.7615 15.4182Z" fill="#A51309"/>
<path d="M80.5671 16.4362C82.9611 16.412 85.355 16.3999 87.7368 16.412C90.6046 16.4241 92.0264 16.4241 94.8942 16.4362C97.7499 16.4605 99.1838 16.4726 102.04 16.4968C104.421 16.5211 106.791 16.5696 109.173 16.618C109.27 16.618 109.319 16.6787 109.294 16.7514C109.27 16.8241 109.173 16.8726 109.088 16.8726C106.694 16.8968 104.3 16.909 101.918 16.8968C99.0502 16.8847 97.6284 16.8847 94.7606 16.8726C91.9049 16.8483 90.4709 16.8362 87.6152 16.812C85.2335 16.7877 82.8638 16.7514 80.4942 16.6908C80.397 16.6908 80.3484 16.6302 80.3727 16.5574C80.3849 16.4968 80.4821 16.4362 80.5671 16.4362Z" fill="#A51309"/>
<path d="M80.2026 17.4423C82.5965 17.4181 84.9904 17.406 87.3843 17.4181C90.2522 17.4302 91.674 17.4302 94.5418 17.4423C97.3975 17.4666 98.8193 17.4787 101.675 17.5029C104.045 17.5272 106.414 17.5635 108.784 17.612C108.869 17.612 108.918 17.6726 108.881 17.7454C108.845 17.8181 108.735 17.8666 108.65 17.8666C106.256 17.8908 103.862 17.9029 101.468 17.8908C98.6127 17.8787 97.1788 17.8787 94.3109 17.8666C91.4552 17.8423 90.0335 17.8302 87.1778 17.806C84.8081 17.7817 82.4385 17.7454 80.0689 17.6969C79.9838 17.6969 79.9352 17.6363 79.9717 17.5635C80.0081 17.4908 80.1175 17.4423 80.2026 17.4423Z" fill="#A51309"/>
</g>
<defs>
<clipPath id="clip0_176_2">
<rect width="144" height="80" fill="white"/>
</clipPath>
</defs>
</svg>
